<svg xmlns="http://www.w3.org/2000/svg" xmlns:xlink="http://www.w3.org/1999/xlink" width="1625pt" height="773pt" viewBox="0.00 0.00 1624.98 773.03">
<g id="graph0" class="graph" transform="scale(1 1) rotate(0) translate(4 769.03)">
<title>AFA</title>
<polygon fill="white" stroke="none" points="-4,4 -4,-769.03 1620.98,-769.03 1620.98,4 -4,4"/>
<!-- q1 -->
<g id="node1" class="node">
<title>q1</title>
<ellipse fill="none" stroke="black" cx="119.27" cy="-329.23" rx="20.69" ry="20.69"/>
<ellipse fill="none" stroke="black" cx="119.27" cy="-329.23" rx="24.69" ry="24.69"/>
<text text-anchor="middle" x="119.27" y="-325.03" font-family="Times,serif" font-size="14.00">q1</text>
</g>
<!-- q2 -->
<g id="node2" class="node">
<title>q2</title>
<ellipse fill="none" stroke="black" cx="221.32" cy="-380.23" rx="20.69" ry="20.69"/>
<ellipse fill="none" stroke="black" cx="221.32" cy="-380.23" rx="24.69" ry="24.69"/>
<text text-anchor="middle" x="221.32" y="-376.03" font-family="Times,serif" font-size="14.00">q2</text>
</g>
<!-- q1&#45;&gt;q2 -->
<g id="edge20" class="edge">
<title>q1-&gt;q2</title>
<path fill="none" stroke="black" d="M141.49,-340.05C155.19,-347.03 173.27,-356.25 188.65,-364.09"/>
<polygon fill="black" stroke="black" points="186.94,-367.15 197.44,-368.57 190.12,-360.91 186.94,-367.15"/>
<text text-anchor="middle" x="170.3" y="-360.46" font-family="Times,serif" font-size="14.00">a</text>
</g>
<!-- q3 -->
<g id="node3" class="node">
<title>q3</title>
<ellipse fill="none" stroke="black" cx="412.58" cy="-327.23" rx="20.69" ry="20.69"/>
<ellipse fill="none" stroke="black" cx="412.58" cy="-327.23" rx="24.69" ry="24.69"/>
<text text-anchor="middle" x="412.58" y="-323.03" font-family="Times,serif" font-size="14.00">q3</text>
</g>
<!-- q1&#45;&gt;q3 -->
<g id="edge21" class="edge">
<title>q1-&gt;q3</title>
<path fill="none" stroke="black" d="M144.11,-329.07C195.32,-328.72 316.06,-327.89 376.22,-327.48"/>
<polygon fill="black" stroke="black" points="375.92,-330.98 385.9,-327.41 375.87,-323.98 375.92,-330.98"/>
<text text-anchor="middle" x="272.34" y="-332.41" font-family="Times,serif" font-size="14.00">b</text>
</g>
<!-- q4 -->
<g id="node4" class="node">
<title>q4</title>
<ellipse fill="none" stroke="black" cx="319.36" cy="-413.23" rx="20.69" ry="20.69"/>
<ellipse fill="none" stroke="black" cx="319.36" cy="-413.23" rx="24.69" ry="24.69"/>
<text text-anchor="middle" x="319.36" y="-409.03" font-family="Times,serif" font-size="14.00">q4</text>
</g>
<!-- q2&#45;&gt;q4 -->
<g id="edge22" class="edge">
<title>q2-&gt;q4</title>
<path fill="none" stroke="black" d="M245.08,-388.05C257.04,-392.16 271.92,-397.28 285.15,-401.82"/>
<polygon fill="black" stroke="black" points="283.74,-405.04 294.33,-404.98 286.01,-398.42 283.74,-405.04"/>
<text text-anchor="middle" x="272.34" y="-401.92" font-family="Times,serif" font-size="14.00">a</text>
</g>
<!-- q5 -->
<g id="node5" class="node">
<title>q5</title>
<ellipse fill="none" stroke="black" cx="689.78" cy="-238.23" rx="20.69" ry="20.69"/>
<ellipse fill="none" stroke="black" cx="689.78" cy="-238.23" rx="24.69" ry="24.69"/>
<text text-anchor="middle" x="689.78" y="-234.03" font-family="Times,serif" font-size="14.00">q5</text>
</g>
<!-- q2&#45;&gt;q5 -->
<g id="edge23" class="edge">
<title>q2-&gt;q5</title>
<path fill="none" stroke="black" d="M228.17,-356.21C238.98,-318.39 265.91,-249.23 318.36,-249.23 318.36,-249.23 318.36,-249.23 597.57,-249.23 616.36,-249.23 637.17,-246.9 654.17,-244.39"/>
<polygon fill="black" stroke="black" points="654.42,-247.89 663.76,-242.88 653.33,-240.98 654.42,-247.89"/>
<text text-anchor="middle" x="458.77" y="-253.43" font-family="Times,serif" font-size="14.00">b</text>
</g>
<!-- q6 -->
<g id="node6" class="node">
<title>q6</title>
<ellipse fill="none" stroke="black" cx="504.96" cy="-360.23" rx="20.69" ry="20.69"/>
<ellipse fill="none" stroke="black" cx="504.96" cy="-360.23" rx="24.69" ry="24.69"/>
<text text-anchor="middle" x="504.96" y="-356.03" font-family="Times,serif" font-size="14.00">q6</text>
</g>
<!-- q3&#45;&gt;q6 -->
<g id="edge24" class="edge">
<title>q3-&gt;q6</title>
<path fill="none" stroke="black" d="M437.39,-324.25C445.48,-324.04 454.45,-324.71 462.27,-327.43 467.89,-329.39 473.33,-332.45 478.32,-335.93"/>
<polygon fill="black" stroke="black" points="476.07,-338.61 486.1,-342.02 480.38,-333.1 476.07,-338.61"/>
<text text-anchor="middle" x="458.77" y="-331.63" font-family="Times,serif" font-size="14.00">b</text>
</g>
<!-- q7 -->
<g id="node21" class="node">
<title>q7</title>
<ellipse fill="none" stroke="black" cx="1268.47" cy="-324.23" rx="20.69" ry="20.69"/>
<text text-anchor="middle" x="1268.47" y="-320.03" font-family="Times,serif" font-size="14.00">q7</text>
</g>
<!-- q3&#45;&gt;q7 -->
<g id="edge25" class="edge">
<title>q3-&gt;q7</title>
<path fill="none" stroke="black" d="M433.85,-314.03C451.6,-303.76 478.46,-291.23 503.96,-291.23 503.96,-291.23 503.96,-291.23 643.76,-291.23 705.22,-291.23 720.58,-290.23 782.04,-290.23 782.04,-290.23 782.04,-290.23 933.1,-290.23 1045.28,-290.23 1177.55,-309.41 1236.47,-318.96"/>
<polygon fill="black" stroke="black" points="1235.64,-322.37 1246.08,-320.54 1236.78,-315.46 1235.64,-322.37"/>
<text text-anchor="middle" x="830.06" y="-294.43" font-family="Times,serif" font-size="14.00">c</text>
</g>
<!-- q4&#45;&gt;q3 -->
<g id="edge27" class="edge">
<title>q4-&gt;q3</title>
<path fill="none" stroke="black" d="M337.95,-396.65C351.58,-383.8 370.66,-365.81 385.98,-351.37"/>
<polygon fill="black" stroke="black" points="388.07,-354.21 392.94,-344.8 383.27,-349.12 388.07,-354.21"/>
<text text-anchor="middle" x="366.38" y="-377.01" font-family="Times,serif" font-size="14.00">b</text>
</g>
<!-- q8 -->
<g id="node7" class="node">
<title>q8</title>
<ellipse fill="none" stroke="black" cx="596.57" cy="-433.23" rx="20.69" ry="20.69"/>
<ellipse fill="none" stroke="black" cx="596.57" cy="-433.23" rx="24.69" ry="24.69"/>
<text text-anchor="middle" x="596.57" y="-429.03" font-family="Times,serif" font-size="14.00">q8</text>
</g>
<!-- q4&#45;&gt;q8 -->
<g id="edge26" class="edge">
<title>q4-&gt;q8</title>
<path fill="none" stroke="black" d="M344.51,-412.47C372.78,-411.8 420.99,-411.36 462.27,-414.43 495.97,-416.94 534.13,-422.61 560.96,-427.08"/>
<polygon fill="black" stroke="black" points="560.13,-430.49 570.58,-428.71 561.31,-423.59 560.13,-430.49"/>
<text text-anchor="middle" x="458.77" y="-418.63" font-family="Times,serif" font-size="14.00">a</text>
</g>
<!-- &amp;1 -->
<g id="node18" class="node">
<title>&amp;1</title>
<ellipse fill="none" stroke="black" cx="1170.43" cy="-530.23" rx="23.38" ry="23.38"/>
<text text-anchor="middle" x="1170.43" y="-526.03" font-family="Times,serif" font-size="14.00">&amp;1</text>
</g>
<!-- q4&#45;&gt;&amp;1 -->
<g id="edge28" class="edge">
<title>q4-&gt;&amp;1</title>
<path fill="none" stroke="black" d="M321.77,-438.14C326.82,-515.78 347.31,-748.23 411.58,-748.23 411.58,-748.23 411.58,-748.23 933.1,-748.23 1042.1,-748.23 1122.32,-621.39 1154.24,-561.21"/>
<polygon fill="black" stroke="black" points="1157.28,-562.97 1158.77,-552.48 1151.06,-559.75 1157.28,-562.97"/>
<text text-anchor="middle" x="736.41" y="-752.43" font-family="Times,serif" font-size="14.00">c</text>
</g>
<!-- q10 -->
<g id="node22" class="node">
<title>q10</title>
<ellipse fill="none" stroke="black" cx="1490.2" cy="-664.23" rx="25.52" ry="25.52"/>
<text text-anchor="middle" x="1490.2" y="-660.03" font-family="Times,serif" font-size="14.00">q10</text>
</g>
<!-- q5&#45;&gt;q10 -->
<g id="edge29" class="edge">
<title>q5-&gt;q10</title>
<path fill="none" stroke="black" d="M714.8,-238.64C733.2,-238.92 759.22,-239.23 782.04,-239.23 782.04,-239.23 782.04,-239.23 1393.94,-239.23 1473.04,-239.23 1486.48,-523.09 1488.75,-626.84"/>
<polygon fill="black" stroke="black" points="1485.24,-626.84 1488.94,-636.77 1492.24,-626.71 1485.24,-626.84"/>
<text text-anchor="middle" x="1072.38" y="-243.43" font-family="Times,serif" font-size="14.00">a</text>
</g>
<!-- q11 -->
<g id="node23" class="node">
<title>q11</title>
<ellipse fill="none" stroke="black" cx="783.04" cy="-537.23" rx="25.52" ry="25.52"/>
<text text-anchor="middle" x="783.04" y="-533.03" font-family="Times,serif" font-size="14.00">q11</text>
</g>
<!-- q5&#45;&gt;q11 -->
<g id="edge30" class="edge">
<title>q5-&gt;q11</title>
<path fill="none" stroke="black" d="M698.02,-261.95C714.01,-314.35 752.44,-440.24 771.27,-501.94"/>
<polygon fill="black" stroke="black" points="767.84,-502.69 774.1,-511.24 774.53,-500.65 767.84,-502.69"/>
<text text-anchor="middle" x="736.41" y="-400.9" font-family="Times,serif" font-size="14.00">c</text>
</g>
<!-- q6&#45;&gt;q3 -->
<g id="edge32" class="edge">
<title>q6-&gt;q3</title>
<path fill="none" stroke="black" d="M481.06,-353.07C472.88,-350.42 463.62,-347.3 455.27,-344.23 452.24,-343.12 449.11,-341.92 445.98,-340.7"/>
<polygon fill="black" stroke="black" points="447.53,-337.55 436.94,-337.08 444.93,-344.05 447.53,-337.55"/>
<text text-anchor="middle" x="458.77" y="-350.79" font-family="Times,serif" font-size="14.00">b</text>
</g>
<!-- q6&#45;&gt;q8 -->
<g id="edge31" class="edge">
<title>q6-&gt;q8</title>
<path fill="none" stroke="black" d="M528.6,-368.25C537.01,-371.84 546.33,-376.6 553.87,-382.43 561.78,-388.56 569.17,-396.45 575.46,-404.17"/>
<polygon fill="black" stroke="black" points="572.5,-406.07 581.38,-411.85 578.04,-401.8 572.5,-406.07"/>
<text text-anchor="middle" x="550.77" y="-386.63" font-family="Times,serif" font-size="14.00">a</text>
</g>
<!-- q8&#45;&gt;q4 -->
<g id="edge34" class="edge">
<title>q8-&gt;q4</title>
<path fill="none" stroke="black" d="M572.24,-437.67C564.45,-438.74 555.7,-439.52 547.66,-439.23 465.38,-436.34 443.83,-441.25 362.88,-426.23 360.03,-425.7 357.09,-425.05 354.16,-424.32"/>
<polygon fill="black" stroke="black" points="355.11,-420.95 344.53,-421.62 353.22,-427.69 355.11,-420.95"/>
<text text-anchor="middle" x="458.77" y="-441.73" font-family="Times,serif" font-size="14.00">a</text>
</g>
<!-- q13 -->
<g id="node25" class="node">
<title>q13</title>
<ellipse fill="none" stroke="black" cx="689.78" cy="-537.23" rx="25.52" ry="25.52"/>
<text text-anchor="middle" x="689.78" y="-533.03" font-family="Times,serif" font-size="14.00">q13</text>
</g>
<!-- q8&#45;&gt;q13 -->
<g id="edge35" class="edge">
<title>q8-&gt;q13</title>
<path fill="none" stroke="black" d="M613.45,-451.35C627.58,-467.45 648.44,-491.24 664.63,-509.69"/>
<polygon fill="black" stroke="black" points="661.93,-511.92 671.15,-517.13 667.19,-507.31 661.93,-511.92"/>
<text text-anchor="middle" x="642.76" y="-492.55" font-family="Times,serif" font-size="14.00">b</text>
</g>
<!-- q16 -->
<g id="node8" class="node">
<title>q16</title>
<ellipse fill="none" stroke="black" cx="1587.46" cy="-664.23" rx="25.52" ry="25.52"/>
<ellipse fill="none" stroke="black" cx="1587.46" cy="-664.23" rx="29.52" ry="29.52"/>
<text text-anchor="middle" x="1587.46" y="-660.03" font-family="Times,serif" font-size="14.00">q16</text>
</g>
<!-- q17 -->
<g id="node9" class="node">
<title>q17</title>
<ellipse fill="none" stroke="black" cx="881.08" cy="-537.23" rx="25.52" ry="25.52"/>
<ellipse fill="none" stroke="black" cx="881.08" cy="-537.23" rx="29.52" ry="29.52"/>
<text text-anchor="middle" x="881.08" y="-533.03" font-family="Times,serif" font-size="14.00">q17</text>
</g>
<!-- q17&#45;&gt;&amp;1 -->
<g id="edge49" class="edge">
<title>q17-&gt;&amp;1</title>
<path fill="none" stroke="black" d="M910.74,-539.62C952.1,-542.71 1030.93,-547.24 1097.91,-543.23 1110.6,-542.47 1124.39,-540.3 1136.44,-537.94"/>
<polygon fill="black" stroke="black" points="1136.81,-541.44 1145.88,-535.97 1135.38,-534.58 1136.81,-541.44"/>
<text text-anchor="middle" x="1025.76" y="-548.95" font-family="Times,serif" font-size="14.00">c</text>
</g>
<!-- q21 -->
<g id="node30" class="node">
<title>q21</title>
<ellipse fill="none" stroke="black" cx="979.13" cy="-448.23" rx="25.52" ry="25.52"/>
<text text-anchor="middle" x="979.13" y="-444.03" font-family="Times,serif" font-size="14.00">q21</text>
</g>
<!-- q17&#45;&gt;q21 -->
<g id="edge48" class="edge">
<title>q17-&gt;q21</title>
<path fill="none" stroke="black" d="M903.4,-517.48C917.67,-504.26 936.55,-486.76 951.76,-472.67"/>
<polygon fill="black" stroke="black" points="953.72,-475.62 958.67,-466.26 948.96,-470.49 953.72,-475.62"/>
<text text-anchor="middle" x="932.1" y="-496.93" font-family="Times,serif" font-size="14.00">b</text>
</g>
<!-- q19 -->
<g id="node10" class="node">
<title>q19</title>
<ellipse fill="none" stroke="black" cx="1170.43" cy="-457.23" rx="25.52" ry="25.52"/>
<ellipse fill="none" stroke="black" cx="1170.43" cy="-457.23" rx="29.52" ry="29.52"/>
<text text-anchor="middle" x="1170.43" y="-453.03" font-family="Times,serif" font-size="14.00">q19</text>
</g>
<!-- q19&#45;&gt;q21 -->
<g id="edge52" class="edge">
<title>q19-&gt;q21</title>
<path fill="none" stroke="black" d="M1140.65,-455.86C1107.36,-454.28 1052.52,-451.68 1016.36,-449.96"/>
<polygon fill="black" stroke="black" points="1016.54,-446.46 1006.39,-449.48 1016.21,-453.45 1016.54,-446.46"/>
<text text-anchor="middle" x="1072.38" y="-457.97" font-family="Times,serif" font-size="14.00">b</text>
</g>
<!-- q24 -->
<g id="node11" class="node">
<title>q24</title>
<ellipse fill="none" stroke="black" cx="119.27" cy="-187.23" rx="25.52" ry="25.52"/>
<ellipse fill="none" stroke="black" cx="119.27" cy="-187.23" rx="29.52" ry="29.52"/>
<text text-anchor="middle" x="119.27" y="-183.03" font-family="Times,serif" font-size="14.00">q24</text>
</g>
<!-- q24&#45;&gt;q24 -->
<g id="edge3" class="edge">
<title>q24-&gt;q24</title>
<path fill="none" stroke="black" d="M114.49,-216.47C114.44,-226.59 116.04,-234.75 119.27,-234.75 121.15,-234.75 122.47,-232.02 123.24,-227.77"/>
<polygon fill="black" stroke="black" points="126.72,-228.2 123.95,-217.98 119.74,-227.7 126.72,-228.2"/>
<text text-anchor="middle" x="119.27" y="-238.95" font-family="Times,serif" font-size="14.00">a</text>
</g>
<!-- q24&#45;&gt;q24 -->
<g id="edge4" class="edge">
<title>q24-&gt;q24</title>
<path fill="none" stroke="black" d="M110.51,-215.86C108.13,-234.61 111.05,-252.75 119.27,-252.75 125.83,-252.75 129.01,-241.23 128.83,-227.06"/>
<polygon fill="black" stroke="black" points="132.35,-227.1 128.15,-217.37 125.36,-227.59 132.35,-227.1"/>
<text text-anchor="middle" x="119.27" y="-256.95" font-family="Times,serif" font-size="14.00">b</text>
</g>
<!-- q25 -->
<g id="node12" class="node">
<title>q25</title>
<ellipse fill="none" stroke="black" cx="221.32" cy="-187.23" rx="25.52" ry="25.52"/>
<ellipse fill="none" stroke="black" cx="221.32" cy="-187.23" rx="29.52" ry="29.52"/>
<text text-anchor="middle" x="221.32" y="-183.03" font-family="Times,serif" font-size="14.00">q25</text>
</g>
<!-- q24&#45;&gt;q25 -->
<g id="edge5" class="edge">
<title>q24-&gt;q25</title>
<path fill="none" stroke="black" d="M140.03,-165.56C147.65,-158.72 156.91,-152.02 166.8,-148.43 176.81,-144.81 186.59,-148.9 195,-155.6"/>
<polygon fill="black" stroke="black" points="192.42,-157.99 202.11,-162.28 197.21,-152.88 192.42,-157.99"/>
<text text-anchor="middle" x="170.3" y="-152.63" font-family="Times,serif" font-size="14.00">c</text>
</g>
<!-- q25&#45;&gt;q24 -->
<g id="edge6" class="edge">
<title>q25-&gt;q24</title>
<path fill="none" stroke="black" d="M195.11,-201.35C186.3,-204.77 176.24,-207 166.8,-205.23 163.6,-204.64 160.35,-203.83 157.12,-202.88"/>
<polygon fill="black" stroke="black" points="158.38,-199.62 147.78,-199.74 156.14,-206.25 158.38,-199.62"/>
<text text-anchor="middle" x="170.3" y="-210.04" font-family="Times,serif" font-size="14.00">a</text>
</g>
<!-- q25&#45;&gt;q24 -->
<g id="edge7" class="edge">
<title>q25-&gt;q24</title>
<path fill="none" stroke="black" d="M191.44,-184.85C183.46,-184.43 174.8,-184.19 166.8,-184.43 164.61,-184.5 162.37,-184.58 160.11,-184.68"/>
<polygon fill="black" stroke="black" points="160.13,-181.17 150.31,-185.17 160.48,-188.16 160.13,-181.17"/>
<text text-anchor="middle" x="170.3" y="-188.63" font-family="Times,serif" font-size="14.00">b</text>
</g>
<!-- q26 -->
<g id="node16" class="node">
<title>q26</title>
<ellipse fill="none" stroke="black" cx="319.36" cy="-187.23" rx="25.52" ry="25.52"/>
<text text-anchor="middle" x="319.36" y="-183.03" font-family="Times,serif" font-size="14.00">q26</text>
</g>
<!-- q25&#45;&gt;q26 -->
<g id="edge8" class="edge">
<title>q25-&gt;q26</title>
<path fill="none" stroke="black" d="M251.14,-187.23C260.83,-187.23 271.76,-187.23 281.96,-187.23"/>
<polygon fill="black" stroke="black" points="281.96,-190.73 291.96,-187.23 281.96,-183.73 281.96,-190.73"/>
<text text-anchor="middle" x="272.34" y="-191.43" font-family="Times,serif" font-size="14.00">c</text>
</g>
<!-- q27 -->
<g id="node13" class="node">
<title>q27</title>
<ellipse fill="none" stroke="black" cx="119.27" cy="-40.23" rx="25.52" ry="25.52"/>
<ellipse fill="none" stroke="black" cx="119.27" cy="-40.23" rx="29.52" ry="29.52"/>
<text text-anchor="middle" x="119.27" y="-36.03" font-family="Times,serif" font-size="14.00">q27</text>
</g>
<!-- q27&#45;&gt;q27 -->
<g id="edge10" class="edge">
<title>q27-&gt;q27</title>
<path fill="none" stroke="black" d="M114.49,-69.47C114.44,-79.59 116.04,-87.75 119.27,-87.75 121.15,-87.75 122.47,-85.02 123.24,-80.77"/>
<polygon fill="black" stroke="black" points="126.72,-81.2 123.95,-70.98 119.74,-80.7 126.72,-81.2"/>
<text text-anchor="middle" x="119.27" y="-91.95" font-family="Times,serif" font-size="14.00">a</text>
</g>
<!-- q27&#45;&gt;q27 -->
<g id="edge11" class="edge">
<title>q27-&gt;q27</title>
<path fill="none" stroke="black" d="M110.51,-68.86C108.13,-87.61 111.05,-105.75 119.27,-105.75 125.83,-105.75 129.01,-94.23 128.83,-80.06"/>
<polygon fill="black" stroke="black" points="132.35,-80.1 128.15,-70.37 125.36,-80.59 132.35,-80.1"/>
<text text-anchor="middle" x="119.27" y="-109.95" font-family="Times,serif" font-size="14.00">b</text>
</g>
<!-- q28 -->
<g id="node17" class="node">
<title>q28</title>
<ellipse fill="none" stroke="black" cx="221.32" cy="-40.23" rx="25.52" ry="25.52"/>
<text text-anchor="middle" x="221.32" y="-36.03" font-family="Times,serif" font-size="14.00">q28</text>
</g>
<!-- q27&#45;&gt;q28 -->
<g id="edge12" class="edge">
<title>q27-&gt;q28</title>
<path fill="none" stroke="black" d="M140.03,-18.56C147.65,-11.72 156.91,-5.02 166.8,-1.43 178.11,2.67 189.14,-3.11 198.22,-11.35"/>
<polygon fill="black" stroke="black" points="195.46,-13.53 204.91,-18.31 200.5,-8.68 195.46,-13.53"/>
<text text-anchor="middle" x="170.3" y="-5.63" font-family="Times,serif" font-size="14.00">c</text>
</g>
<!-- q30 -->
<g id="node14" class="node">
<title>q30</title>
<ellipse fill="none" stroke="black" cx="1392.94" cy="-388.23" rx="25.52" ry="25.52"/>
<ellipse fill="none" stroke="black" cx="1392.94" cy="-388.23" rx="29.52" ry="29.52"/>
<text text-anchor="middle" x="1392.94" y="-384.03" font-family="Times,serif" font-size="14.00">q30</text>
</g>
<!-- q29 -->
<g id="node20" class="node">
<title>q29</title>
<ellipse fill="none" stroke="black" cx="1268.47" cy="-397.23" rx="25.52" ry="25.52"/>
<text text-anchor="middle" x="1268.47" y="-393.03" font-family="Times,serif" font-size="14.00">q29</text>
</g>
<!-- q30&#45;&gt;q29 -->
<g id="edge19" class="edge">
<title>q30-&gt;q29</title>
<path fill="none" stroke="black" d="M1365.81,-375.81C1350.09,-369.97 1329.75,-365.3 1311.99,-370.43 1307.47,-371.74 1302.96,-373.69 1298.66,-375.95"/>
<polygon fill="black" stroke="black" points="1297.21,-372.74 1290.41,-380.86 1300.79,-378.75 1297.21,-372.74"/>
<text text-anchor="middle" x="1328.71" y="-374.63" font-family="Times,serif" font-size="14.00">a, b, c</text>
</g>
<!-- &amp;0 -->
<g id="node15" class="node">
<title>&amp;0</title>
<ellipse fill="none" stroke="black" cx="23.38" cy="-187.23" rx="23.38" ry="23.38"/>
<text text-anchor="middle" x="23.38" y="-183.03" font-family="Times,serif" font-size="14.00">&amp;0</text>
</g>
<!-- &amp;0&#45;&gt;q1 -->
<g id="edge1" class="edge">
<title>&amp;0-&gt;q1</title>
<path fill="none" stroke="black" d="M35.53,-207.73C47.89,-229.9 68.83,-266 89.75,-295.23 91.4,-297.54 93.16,-299.88 94.97,-302.2"/>
<polygon fill="black" stroke="black" points="92.09,-304.2 101.1,-309.76 97.53,-299.79 92.09,-304.2"/>
<text text-anchor="middle" x="68.25" y="-270.68" font-family="Times,serif" font-size="14.00">ε</text>
</g>
<!-- &amp;0&#45;&gt;q24 -->
<g id="edge2" class="edge">
<title>&amp;0-&gt;q24</title>
<path fill="none" stroke="black" d="M47.11,-187.23C56.43,-187.23 67.52,-187.23 78.13,-187.23"/>
<polygon fill="black" stroke="black" points="77.83,-190.73 87.83,-187.23 77.83,-183.73 77.83,-190.73"/>
<text text-anchor="middle" x="68.25" y="-191.43" font-family="Times,serif" font-size="14.00">ε</text>
</g>
<!-- &amp;0&#45;&gt;q27 -->
<g id="edge9" class="edge">
<title>&amp;0-&gt;q27</title>
<path fill="none" stroke="black" d="M36.85,-167.71C52.04,-143.93 77.97,-103.33 96.49,-74.34"/>
<polygon fill="black" stroke="black" points="99.21,-76.58 101.64,-66.27 93.31,-72.81 99.21,-76.58"/>
<text text-anchor="middle" x="68.25" y="-126.73" font-family="Times,serif" font-size="14.00">ε</text>
</g>
<!-- q28&#45;&gt;q27 -->
<g id="edge13" class="edge">
<title>q28-&gt;q27</title>
<path fill="none" stroke="black" d="M198.81,-52.82C189.18,-57.05 177.59,-60.25 166.8,-58.23 163.6,-57.64 160.35,-56.83 157.12,-55.88"/>
<polygon fill="black" stroke="black" points="158.38,-52.62 147.78,-52.74 156.14,-59.25 158.38,-52.62"/>
<text text-anchor="middle" x="170.3" y="-63.04" font-family="Times,serif" font-size="14.00">a</text>
</g>
<!-- q28&#45;&gt;q27 -->
<g id="edge14" class="edge">
<title>q28-&gt;q27</title>
<path fill="none" stroke="black" d="M195.55,-38.09C186.5,-37.53 176.19,-37.15 166.8,-37.43 164.61,-37.5 162.37,-37.58 160.11,-37.68"/>
<polygon fill="black" stroke="black" points="160.13,-34.17 150.31,-38.17 160.48,-41.16 160.13,-34.17"/>
<text text-anchor="middle" x="170.3" y="-41.63" font-family="Times,serif" font-size="14.00">b</text>
</g>
<!-- q28&#45;&gt;q28 -->
<g id="edge15" class="edge">
<title>q28-&gt;q28</title>
<path fill="none" stroke="black" d="M211.87,-64.4C211.09,-74.83 214.24,-83.75 221.32,-83.75 225.52,-83.75 228.34,-80.61 229.77,-75.87"/>
<polygon fill="black" stroke="black" points="233.26,-76.18 230.64,-65.91 226.28,-75.57 233.26,-76.18"/>
<text text-anchor="middle" x="221.32" y="-87.95" font-family="Times,serif" font-size="14.00">c</text>
</g>
<!-- q9 -->
<g id="node19" class="node">
<title>q9</title>
<ellipse fill="none" stroke="black" cx="1268.47" cy="-574.23" rx="20.69" ry="20.69"/>
<text text-anchor="middle" x="1268.47" y="-570.03" font-family="Times,serif" font-size="14.00">q9</text>
</g>
<!-- &amp;1&#45;&gt;q9 -->
<g id="edge16" class="edge">
<title>&amp;1-&gt;q9</title>
<path fill="none" stroke="black" d="M1192.27,-539.78C1205.94,-546.04 1224,-554.32 1238.99,-561.19"/>
<polygon fill="black" stroke="black" points="1237.34,-564.28 1247.89,-565.26 1240.25,-557.91 1237.34,-564.28"/>
<text text-anchor="middle" x="1221.45" y="-557.75" font-family="Times,serif" font-size="14.00">ε</text>
</g>
<!-- &amp;1&#45;&gt;q29 -->
<g id="edge17" class="edge">
<title>&amp;1-&gt;q29</title>
<path fill="none" stroke="black" d="M1187.53,-514C1192.08,-508.69 1196.68,-502.52 1199.95,-496.23 1214.31,-468.56 1199.48,-453.55 1217.95,-428.43 1222.48,-422.27 1228.63,-417.04 1235.05,-412.72"/>
<polygon fill="black" stroke="black" points="1236.43,-415.97 1243.19,-407.82 1232.82,-409.97 1236.43,-415.97"/>
<text text-anchor="middle" x="1221.45" y="-432.63" font-family="Times,serif" font-size="14.00">ε</text>
</g>
<!-- q14 -->
<g id="node26" class="node">
<title>q14</title>
<ellipse fill="none" stroke="black" cx="1392.94" cy="-487.23" rx="25.52" ry="25.52"/>
<text text-anchor="middle" x="1392.94" y="-483.03" font-family="Times,serif" font-size="14.00">q14</text>
</g>
<!-- q9&#45;&gt;q14 -->
<g id="edge36" class="edge">
<title>q9-&gt;q14</title>
<path fill="none" stroke="black" d="M1285.99,-562.5C1305.5,-548.64 1338.33,-525.32 1362.28,-508.3"/>
<polygon fill="black" stroke="black" points="1364.26,-511.19 1370.39,-502.55 1360.21,-505.48 1364.26,-511.19"/>
<text text-anchor="middle" x="1328.71" y="-547.81" font-family="Times,serif" font-size="14.00">a</text>
</g>
<!-- q15 -->
<g id="node27" class="node">
<title>q15</title>
<ellipse fill="none" stroke="black" cx="1392.94" cy="-602.23" rx="25.52" ry="25.52"/>
<text text-anchor="middle" x="1392.94" y="-598.03" font-family="Times,serif" font-size="14.00">q15</text>
</g>
<!-- q9&#45;&gt;q15 -->
<g id="edge37" class="edge">
<title>q9-&gt;q15</title>
<path fill="none" stroke="black" d="M1289.15,-578.73C1307.26,-582.87 1334.56,-589.11 1356.47,-594.12"/>
<polygon fill="black" stroke="black" points="1355.67,-597.53 1366.2,-596.35 1357.23,-590.71 1355.67,-597.53"/>
<text text-anchor="middle" x="1328.71" y="-595.76" font-family="Times,serif" font-size="14.00">b</text>
</g>
<!-- q29&#45;&gt;q30 -->
<g id="edge18" class="edge">
<title>q29-&gt;q30</title>
<path fill="none" stroke="black" d="M1294.26,-395.41C1310.81,-394.2 1332.95,-392.57 1351.97,-391.17"/>
<polygon fill="black" stroke="black" points="1352.1,-394.67 1361.82,-390.45 1351.59,-387.69 1352.1,-394.67"/>
<text text-anchor="middle" x="1328.71" y="-398.27" font-family="Times,serif" font-size="14.00">a, b, c</text>
</g>
<!-- q12 -->
<g id="node24" class="node">
<title>q12</title>
<ellipse fill="none" stroke="black" cx="1072.38" cy="-345.23" rx="25.52" ry="25.52"/>
<text text-anchor="middle" x="1072.38" y="-341.03" font-family="Times,serif" font-size="14.00">q12</text>
</g>
<!-- q7&#45;&gt;q12 -->
<g id="edge33" class="edge">
<title>q7-&gt;q12</title>
<path fill="none" stroke="black" d="M1247.67,-324.76C1222.7,-325.61 1178.48,-327.67 1140.91,-332.43 1130.41,-333.76 1119.09,-335.71 1108.77,-337.68"/>
<polygon fill="black" stroke="black" points="1108.26,-334.21 1099.13,-339.59 1109.62,-341.08 1108.26,-334.21"/>
<text text-anchor="middle" x="1170.43" y="-336.63" font-family="Times,serif" font-size="14.00">a</text>
</g>
<!-- q10&#45;&gt;q16 -->
<g id="edge38" class="edge">
<title>q10-&gt;q16</title>
<path fill="none" stroke="black" d="M1515.73,-664.23C1525.02,-664.23 1535.86,-664.23 1546.23,-664.23"/>
<polygon fill="black" stroke="black" points="1546.1,-667.73 1556.1,-664.23 1546.1,-660.73 1546.1,-667.73"/>
<text text-anchor="middle" x="1536.83" y="-668.43" font-family="Times,serif" font-size="14.00">a</text>
</g>
<!-- q11&#45;&gt;q17 -->
<g id="edge39" class="edge">
<title>q11-&gt;q17</title>
<path fill="none" stroke="black" d="M809.02,-537.23C818.39,-537.23 829.29,-537.23 839.7,-537.23"/>
<polygon fill="black" stroke="black" points="839.63,-540.73 849.63,-537.23 839.63,-533.73 839.63,-540.73"/>
<text text-anchor="middle" x="830.06" y="-541.43" font-family="Times,serif" font-size="14.00">a</text>
</g>
<!-- q18 -->
<g id="node28" class="node">
<title>q18</title>
<ellipse fill="none" stroke="black" cx="881.08" cy="-616.23" rx="25.52" ry="25.52"/>
<text text-anchor="middle" x="881.08" y="-612.03" font-family="Times,serif" font-size="14.00">q18</text>
</g>
<!-- q11&#45;&gt;q18 -->
<g id="edge40" class="edge">
<title>q11-&gt;q18</title>
<path fill="none" stroke="black" d="M803.47,-553.22C817.4,-564.68 836.38,-580.28 851.96,-593.1"/>
<polygon fill="black" stroke="black" points="849.56,-595.66 859.51,-599.31 854.01,-590.25 849.56,-595.66"/>
<text text-anchor="middle" x="830.06" y="-580.93" font-family="Times,serif" font-size="14.00">b</text>
</g>
<!-- q12&#45;&gt;q19 -->
<g id="edge41" class="edge">
<title>q12-&gt;q19</title>
<path fill="none" stroke="black" d="M1087.62,-366.2C1095.56,-377.48 1105.85,-391.46 1115.91,-403.23 1123.49,-412.12 1132.23,-421.31 1140.42,-429.54"/>
<polygon fill="black" stroke="black" points="1137.71,-431.79 1147.28,-436.34 1142.64,-426.81 1137.71,-431.79"/>
<text text-anchor="middle" x="1119.41" y="-415.19" font-family="Times,serif" font-size="14.00">a</text>
</g>
<!-- q20 -->
<g id="node29" class="node">
<title>q20</title>
<ellipse fill="none" stroke="black" cx="1170.43" cy="-384.23" rx="25.52" ry="25.52"/>
<text text-anchor="middle" x="1170.43" y="-380.03" font-family="Times,serif" font-size="14.00">q20</text>
</g>
<!-- q12&#45;&gt;q20 -->
<g id="edge42" class="edge">
<title>q12-&gt;q20</title>
<path fill="none" stroke="black" d="M1098.16,-342.71C1106.26,-342.69 1115.16,-343.58 1122.91,-346.43 1130.38,-349.19 1137.55,-353.68 1143.93,-358.62"/>
<polygon fill="black" stroke="black" points="1141.6,-361.24 1151.49,-365.05 1146.14,-355.91 1141.6,-361.24"/>
<text text-anchor="middle" x="1119.41" y="-350.63" font-family="Times,serif" font-size="14.00">b</text>
</g>
<!-- q13&#45;&gt;q10 -->
<g id="edge43" class="edge">
<title>q13-&gt;q10</title>
<path fill="none" stroke="black" d="M692.65,-562.76C697.72,-610.88 716.16,-710.23 782.04,-710.23 782.04,-710.23 782.04,-710.23 933.1,-710.23 994.79,-710.23 1009.7,-722.23 1071.38,-722.23 1071.38,-722.23 1071.38,-722.23 1393.94,-722.23 1420.57,-722.23 1446.07,-705.5 1463.98,-690.01"/>
<polygon fill="black" stroke="black" points="1465.98,-692.93 1471.01,-683.6 1461.26,-687.75 1465.98,-692.93"/>
<text text-anchor="middle" x="1072.38" y="-726.43" font-family="Times,serif" font-size="14.00">a</text>
</g>
<!-- q13&#45;&gt;q11 -->
<g id="edge44" class="edge">
<title>q13-&gt;q11</title>
<path fill="none" stroke="black" d="M715.72,-537.23C724.97,-537.23 735.67,-537.23 745.73,-537.23"/>
<polygon fill="black" stroke="black" points="745.62,-540.73 755.62,-537.23 745.62,-533.73 745.62,-540.73"/>
<text text-anchor="middle" x="736.41" y="-541.43" font-family="Times,serif" font-size="14.00">c</text>
</g>
<!-- q14&#45;&gt;&amp;1 -->
<g id="edge45" class="edge">
<title>q14-&gt;&amp;1</title>
<path fill="none" stroke="black" d="M1367.81,-481.15C1337.79,-474.71 1285.32,-467.14 1242.95,-480.43 1225.99,-485.76 1209.53,-496.68 1196.69,-506.95"/>
<polygon fill="black" stroke="black" points="1194.6,-504.14 1189.18,-513.24 1199.09,-509.5 1194.6,-504.14"/>
<text text-anchor="middle" x="1268.47" y="-484.63" font-family="Times,serif" font-size="14.00">c</text>
</g>
<!-- q15&#45;&gt;&amp;1 -->
<g id="edge47" class="edge">
<title>q15-&gt;&amp;1</title>
<path fill="none" stroke="black" d="M1374.97,-583.53C1356.95,-565.21 1326.63,-538.47 1293.99,-527.43 1264.93,-517.6 1229.73,-519.73 1204.52,-523.47"/>
<polygon fill="black" stroke="black" points="1204.14,-519.98 1194.85,-525.08 1205.29,-526.89 1204.14,-519.98"/>
<text text-anchor="middle" x="1268.47" y="-531.63" font-family="Times,serif" font-size="14.00">c</text>
</g>
<!-- q15&#45;&gt;q10 -->
<g id="edge46" class="edge">
<title>q15-&gt;q10</title>
<path fill="none" stroke="black" d="M1414.61,-615.69C1427.51,-624.08 1444.33,-635.03 1458.73,-644.4"/>
<polygon fill="black" stroke="black" points="1456.68,-647.24 1466.97,-649.77 1460.5,-641.38 1456.68,-647.24"/>
<text text-anchor="middle" x="1443.57" y="-639.29" font-family="Times,serif" font-size="14.00">a</text>
</g>
<!-- q18&#45;&gt;q10 -->
<g id="edge50" class="edge">
<title>q18-&gt;q10</title>
<path fill="none" stroke="black" d="M903.6,-628.91C917.44,-636.52 936.06,-645.75 953.6,-651.23 1024.32,-673.33 1044.32,-676.23 1118.41,-676.23 1118.41,-676.23 1118.41,-676.23 1393.94,-676.23 1413.68,-676.23 1435.53,-673.67 1453.32,-670.91"/>
<polygon fill="black" stroke="black" points="1453.84,-674.37 1463.14,-669.29 1452.71,-667.46 1453.84,-674.37"/>
<text text-anchor="middle" x="1170.43" y="-680.43" font-family="Times,serif" font-size="14.00">a</text>
</g>
<!-- q22 -->
<g id="node31" class="node">
<title>q22</title>
<ellipse fill="none" stroke="black" cx="979.13" cy="-616.23" rx="25.52" ry="25.52"/>
<text text-anchor="middle" x="979.13" y="-612.03" font-family="Times,serif" font-size="14.00">q22</text>
</g>
<!-- q18&#45;&gt;q22 -->
<g id="edge51" class="edge">
<title>q18-&gt;q22</title>
<path fill="none" stroke="black" d="M907.07,-616.23C917.74,-616.23 930.4,-616.23 942.06,-616.23"/>
<polygon fill="black" stroke="black" points="941.75,-619.73 951.75,-616.23 941.75,-612.73 941.75,-619.73"/>
<text text-anchor="middle" x="932.1" y="-620.43" font-family="Times,serif" font-size="14.00">c</text>
</g>
<!-- q20&#45;&gt;q7 -->
<g id="edge53" class="edge">
<title>q20-&gt;q7</title>
<path fill="none" stroke="black" d="M1192.74,-370.92C1206.98,-362.02 1225.8,-350.26 1241,-340.77"/>
<polygon fill="black" stroke="black" points="1242.46,-343.98 1249.09,-335.72 1238.75,-338.05 1242.46,-343.98"/>
<text text-anchor="middle" x="1221.45" y="-358.43" font-family="Times,serif" font-size="14.00">c</text>
</g>
<!-- q21&#45;&gt;q12 -->
<g id="edge54" class="edge">
<title>q21-&gt;q12</title>
<path fill="none" stroke="black" d="M996.86,-429.34C1011.01,-413.37 1031.46,-390.29 1047.36,-372.35"/>
<polygon fill="black" stroke="black" points="1049.74,-374.94 1053.75,-365.14 1044.5,-370.3 1049.74,-374.94"/>
<text text-anchor="middle" x="1025.76" y="-404.02" font-family="Times,serif" font-size="14.00">c</text>
</g>
<!-- q22&#45;&gt;q15 -->
<g id="edge56" class="edge">
<title>q22-&gt;q15</title>
<path fill="none" stroke="black" d="M1004.99,-616.87C1064.12,-618.14 1217.75,-620.02 1345.42,-609.23 1348.89,-608.94 1352.49,-608.55 1356.09,-608.1"/>
<polygon fill="black" stroke="black" points="1356.46,-611.59 1365.89,-606.75 1355.5,-604.65 1356.46,-611.59"/>
<text text-anchor="middle" x="1170.43" y="-621.86" font-family="Times,serif" font-size="14.00">b</text>
</g>
<!-- q23 -->
<g id="node32" class="node">
<title>q23</title>
<ellipse fill="none" stroke="black" cx="1072.38" cy="-508.23" rx="25.52" ry="25.52"/>
<text text-anchor="middle" x="1072.38" y="-504.03" font-family="Times,serif" font-size="14.00">q23</text>
</g>
<!-- q22&#45;&gt;q23 -->
<g id="edge55" class="edge">
<title>q22-&gt;q23</title>
<path fill="none" stroke="black" d="M985.58,-591.13C991.38,-570.22 1002.56,-541.11 1022.65,-523.43 1026.53,-520.01 1031.18,-517.36 1036.04,-515.31"/>
<polygon fill="black" stroke="black" points="1037.01,-518.68 1045.38,-512.18 1034.78,-512.04 1037.01,-518.68"/>
<text text-anchor="middle" x="1025.76" y="-527.63" font-family="Times,serif" font-size="14.00">a</text>
</g>
<!-- q23&#45;&gt;q19 -->
<g id="edge57" class="edge">
<title>q23-&gt;q19</title>
<path fill="none" stroke="black" d="M1095.18,-496.66C1106.62,-490.58 1120.93,-482.99 1133.92,-476.09"/>
<polygon fill="black" stroke="black" points="1135.45,-479.24 1142.64,-471.46 1132.17,-473.05 1135.45,-479.24"/>
<text text-anchor="middle" x="1119.41" y="-488.46" font-family="Times,serif" font-size="14.00">a</text>
</g>
<!-- q23&#45;&gt;&amp;1 -->
<g id="edge59" class="edge">
<title>q23-&gt;&amp;1</title>
<path fill="none" stroke="black" d="M1097.62,-513.78C1109.28,-516.45 1123.44,-519.7 1136.09,-522.6"/>
<polygon fill="black" stroke="black" points="1135.17,-525.98 1145.7,-524.8 1136.73,-519.15 1135.17,-525.98"/>
<text text-anchor="middle" x="1119.41" y="-523.43" font-family="Times,serif" font-size="14.00">c</text>
</g>
<!-- q23&#45;&gt;q20 -->
<g id="edge58" class="edge">
<title>q23-&gt;q20</title>
<path fill="none" stroke="black" d="M1088.06,-487.92C1091.73,-482.11 1095.34,-475.61 1097.91,-469.23 1112.63,-432.69 1085.35,-407.3 1115.91,-382.43 1121.13,-378.18 1127.67,-376.48 1134.38,-376.23"/>
<polygon fill="black" stroke="black" points="1133.89,-379.7 1144.1,-376.87 1134.35,-372.72 1133.89,-379.7"/>
<text text-anchor="middle" x="1119.41" y="-386.63" font-family="Times,serif" font-size="14.00">b</text>
</g>
</g>
</svg>