<svg xmlns="http://www.w3.org/2000/svg" xmlns:xlink="http://www.w3.org/1999/xlink" width="1617pt" height="756pt" viewBox="0.00 0.00 1616.98 756.32">
<g id="graph0" class="graph" transform="scale(1 1) rotate(0) translate(4 752.32)">
<title>AFA</title>
<polygon fill="white" stroke="none" points="-4,4 -4,-752.32 1612.98,-752.32 1612.98,4 -4,4"/>
<!-- q1 -->
<g id="node1" class="node">
<title>q1</title>
<ellipse fill="none" stroke="black" cx="119.27" cy="-171.52" rx="20.69" ry="20.69"/>
<ellipse fill="none" stroke="black" cx="119.27" cy="-171.52" rx="24.69" ry="24.69"/>
<text text-anchor="middle" x="119.27" y="-167.32" font-family="Times,serif" font-size="14.00">q1</text>
</g>
<!-- q2 -->
<g id="node2" class="node">
<title>q2</title>
<ellipse fill="none" stroke="black" cx="217.32" cy="-245.52" rx="20.69" ry="20.69"/>
<ellipse fill="none" stroke="black" cx="217.32" cy="-245.52" rx="24.69" ry="24.69"/>
<text text-anchor="middle" x="217.32" y="-241.32" font-family="Times,serif" font-size="14.00">q2</text>
</g>
<!-- q1&#45;&gt;q2 -->
<g id="edge13" class="edge">
<title>q1-&gt;q2</title>
<path fill="none" stroke="black" d="M139.25,-186.14C153.23,-196.92 172.48,-211.75 188.24,-223.89"/>
<polygon fill="black" stroke="black" points="185.8,-226.42 195.86,-229.76 190.07,-220.88 185.8,-226.42"/>
<text text-anchor="middle" x="170.3" y="-214.94" font-family="Times,serif" font-size="14.00">a</text>
</g>
<!-- q3 -->
<g id="node3" class="node">
<title>q3</title>
<ellipse fill="none" stroke="black" cx="404.58" cy="-213.52" rx="20.69" ry="20.69"/>
<ellipse fill="none" stroke="black" cx="404.58" cy="-213.52" rx="24.69" ry="24.69"/>
<text text-anchor="middle" x="404.58" y="-209.32" font-family="Times,serif" font-size="14.00">q3</text>
</g>
<!-- q1&#45;&gt;q3 -->
<g id="edge14" class="edge">
<title>q1-&gt;q3</title>
<path fill="none" stroke="black" d="M143.94,-175.03C193.83,-182.43 310.01,-199.65 368.54,-208.33"/>
<polygon fill="black" stroke="black" points="367.88,-211.77 378.28,-209.77 368.9,-204.84 367.88,-211.77"/>
<text text-anchor="middle" x="264.34" y="-197.21" font-family="Times,serif" font-size="14.00">b</text>
</g>
<!-- q4 -->
<g id="node4" class="node">
<title>q4</title>
<ellipse fill="none" stroke="black" cx="311.36" cy="-245.52" rx="20.69" ry="20.69"/>
<ellipse fill="none" stroke="black" cx="311.36" cy="-245.52" rx="24.69" ry="24.69"/>
<text text-anchor="middle" x="311.36" y="-241.32" font-family="Times,serif" font-size="14.00">q4</text>
</g>
<!-- q2&#45;&gt;q4 -->
<g id="edge15" class="edge">
<title>q2-&gt;q4</title>
<path fill="none" stroke="black" d="M242.5,-245.52C252.44,-245.52 264.14,-245.52 275,-245.52"/>
<polygon fill="black" stroke="black" points="274.83,-249.02 284.83,-245.52 274.83,-242.02 274.83,-249.02"/>
<text text-anchor="middle" x="264.34" y="-249.72" font-family="Times,serif" font-size="14.00">a</text>
</g>
<!-- q5 -->
<g id="node5" class="node">
<title>q5</title>
<ellipse fill="none" stroke="black" cx="681.78" cy="-400.52" rx="20.69" ry="20.69"/>
<ellipse fill="none" stroke="black" cx="681.78" cy="-400.52" rx="24.69" ry="24.69"/>
<text text-anchor="middle" x="681.78" y="-396.32" font-family="Times,serif" font-size="14.00">q5</text>
</g>
<!-- q2&#45;&gt;q5 -->
<g id="edge16" class="edge">
<title>q2-&gt;q5</title>
<path fill="none" stroke="black" d="M222.96,-269.88C232.09,-309.49 256.37,-383.52 310.36,-383.52 310.36,-383.52 310.36,-383.52 589.57,-383.52 608.67,-383.52 629.66,-387.17 646.68,-391.09"/>
<polygon fill="black" stroke="black" points="645.74,-394.46 656.29,-393.44 647.41,-387.66 645.74,-394.46"/>
<text text-anchor="middle" x="450.77" y="-387.72" font-family="Times,serif" font-size="14.00">b</text>
</g>
<!-- q6 -->
<g id="node6" class="node">
<title>q6</title>
<ellipse fill="none" stroke="black" cx="496.96" cy="-213.52" rx="20.69" ry="20.69"/>
<ellipse fill="none" stroke="black" cx="496.96" cy="-213.52" rx="24.69" ry="24.69"/>
<text text-anchor="middle" x="496.96" y="-209.32" font-family="Times,serif" font-size="14.00">q6</text>
</g>
<!-- q3&#45;&gt;q6 -->
<g id="edge17" class="edge">
<title>q3-&gt;q6</title>
<path fill="none" stroke="black" d="M429.33,-213.52C438.9,-213.52 450.15,-213.52 460.65,-213.52"/>
<polygon fill="black" stroke="black" points="460.55,-217.02 470.55,-213.52 460.55,-210.02 460.55,-217.02"/>
<text text-anchor="middle" x="450.77" y="-217.72" font-family="Times,serif" font-size="14.00">b</text>
</g>
<!-- q7 -->
<g id="node19" class="node">
<title>q7</title>
<ellipse fill="none" stroke="black" cx="1260.47" cy="-477.52" rx="20.69" ry="20.69"/>
<text text-anchor="middle" x="1260.47" y="-473.32" font-family="Times,serif" font-size="14.00">q7</text>
</g>
<!-- q3&#45;&gt;q7 -->
<g id="edge18" class="edge">
<title>q3-&gt;q7</title>
<path fill="none" stroke="black" d="M415.77,-236.02C429.71,-262.96 457.44,-304.52 495.96,-304.52 495.96,-304.52 495.96,-304.52 1018.76,-304.52 1064.23,-304.52 1156.03,-385.63 1191.95,-413.52 1208.17,-426.12 1224.94,-441.99 1237.7,-454.77"/>
<polygon fill="black" stroke="black" points="1234.9,-456.91 1244.41,-461.59 1239.89,-452 1234.9,-456.91"/>
<text text-anchor="middle" x="822.06" y="-308.72" font-family="Times,serif" font-size="14.00">c</text>
</g>
<!-- q4&#45;&gt;q3 -->
<g id="edge20" class="edge">
<title>q4-&gt;q3</title>
<path fill="none" stroke="black" d="M334.91,-237.61C345.54,-233.88 358.45,-229.35 370.19,-225.24"/>
<polygon fill="black" stroke="black" points="371.27,-228.57 379.55,-221.95 368.95,-221.96 371.27,-228.57"/>
<text text-anchor="middle" x="358.38" y="-234.68" font-family="Times,serif" font-size="14.00">b</text>
</g>
<!-- q8 -->
<g id="node7" class="node">
<title>q8</title>
<ellipse fill="none" stroke="black" cx="588.57" cy="-251.52" rx="20.69" ry="20.69"/>
<ellipse fill="none" stroke="black" cx="588.57" cy="-251.52" rx="24.69" ry="24.69"/>
<text text-anchor="middle" x="588.57" y="-247.32" font-family="Times,serif" font-size="14.00">q8</text>
</g>
<!-- q4&#45;&gt;q8 -->
<g id="edge19" class="edge">
<title>q4-&gt;q8</title>
<path fill="none" stroke="black" d="M336.14,-249.45C342.23,-250.3 348.79,-251.08 354.88,-251.52 436.79,-257.49 457.54,-252.3 539.66,-252.52 542.42,-252.53 543.11,-252.56 545.87,-252.52 547.95,-252.5 550.09,-252.47 552.25,-252.43"/>
<polygon fill="black" stroke="black" points="552.32,-255.93 562.24,-252.22 552.17,-248.93 552.32,-255.93"/>
<text text-anchor="middle" x="450.77" y="-258.35" font-family="Times,serif" font-size="14.00">a</text>
</g>
<!-- &amp;1 -->
<g id="node16" class="node">
<title>&amp;1</title>
<ellipse fill="none" stroke="black" cx="1162.43" cy="-326.52" rx="23.38" ry="23.38"/>
<text text-anchor="middle" x="1162.43" y="-322.32" font-family="Times,serif" font-size="14.00">&amp;1</text>
</g>
<!-- q4&#45;&gt;&amp;1 -->
<g id="edge21" class="edge">
<title>q4-&gt;&amp;1</title>
<path fill="none" stroke="black" d="M322.4,-223.25C336.37,-196.02 364.44,-153.52 403.58,-153.52 403.58,-153.52 403.58,-153.52 1065.38,-153.52 1128.04,-153.52 1150.17,-241.33 1157.71,-291.83"/>
<polygon fill="black" stroke="black" points="1154.24,-292.25 1159.05,-301.69 1161.17,-291.31 1154.24,-292.25"/>
<text text-anchor="middle" x="728.41" y="-157.72" font-family="Times,serif" font-size="14.00">c</text>
</g>
<!-- q10 -->
<g id="node20" class="node">
<title>q10</title>
<ellipse fill="none" stroke="black" cx="1482.2" cy="-640.52" rx="25.52" ry="25.52"/>
<text text-anchor="middle" x="1482.2" y="-636.32" font-family="Times,serif" font-size="14.00">q10</text>
</g>
<!-- q5&#45;&gt;q10 -->
<g id="edge22" class="edge">
<title>q5-&gt;q10</title>
<path fill="none" stroke="black" d="M684.27,-425.4C689.54,-502.38 710.55,-731.52 774.04,-731.52 774.04,-731.52 774.04,-731.52 1385.94,-731.52 1421.03,-731.52 1448.27,-698.85 1464.47,-672.66"/>
<polygon fill="black" stroke="black" points="1467.32,-674.72 1469.37,-664.32 1461.28,-671.17 1467.32,-674.72"/>
<text text-anchor="middle" x="1064.38" y="-735.72" font-family="Times,serif" font-size="14.00">a</text>
</g>
<!-- q11 -->
<g id="node21" class="node">
<title>q11</title>
<ellipse fill="none" stroke="black" cx="775.04" cy="-400.52" rx="25.52" ry="25.52"/>
<text text-anchor="middle" x="775.04" y="-396.32" font-family="Times,serif" font-size="14.00">q11</text>
</g>
<!-- q5&#45;&gt;q11 -->
<g id="edge23" class="edge">
<title>q5-&gt;q11</title>
<path fill="none" stroke="black" d="M706.76,-400.52C716.27,-400.52 727.42,-400.52 737.88,-400.52"/>
<polygon fill="black" stroke="black" points="737.75,-404.02 747.75,-400.52 737.75,-397.02 737.75,-404.02"/>
<text text-anchor="middle" x="728.41" y="-404.72" font-family="Times,serif" font-size="14.00">c</text>
</g>
<!-- q6&#45;&gt;q3 -->
<g id="edge25" class="edge">
<title>q6-&gt;q3</title>
<path fill="none" stroke="black" d="M476.59,-198.94C467.87,-194.05 457.29,-190.36 447.27,-192.72 443.65,-193.58 439.98,-194.79 436.41,-196.22"/>
<polygon fill="black" stroke="black" points="435.08,-192.98 427.45,-200.32 437.99,-199.34 435.08,-192.98"/>
<text text-anchor="middle" x="450.77" y="-196.92" font-family="Times,serif" font-size="14.00">b</text>
</g>
<!-- q6&#45;&gt;q8 -->
<g id="edge24" class="edge">
<title>q6-&gt;q8</title>
<path fill="none" stroke="black" d="M520.11,-222.92C530.56,-227.35 543.24,-232.72 554.77,-237.61"/>
<polygon fill="black" stroke="black" points="553.4,-240.83 563.97,-241.51 556.13,-234.39 553.4,-240.83"/>
<text text-anchor="middle" x="542.77" y="-237.86" font-family="Times,serif" font-size="14.00">a</text>
</g>
<!-- q8&#45;&gt;q4 -->
<g id="edge27" class="edge">
<title>q8-&gt;q4</title>
<path fill="none" stroke="black" d="M570.69,-268.49C545.15,-292.06 494.63,-330.51 447.27,-318.52 407.67,-308.49 367.09,-284.27 340.92,-266.47"/>
<polygon fill="black" stroke="black" points="343.08,-263.71 332.87,-260.87 339.08,-269.45 343.08,-263.71"/>
<text text-anchor="middle" x="450.77" y="-324.01" font-family="Times,serif" font-size="14.00">a</text>
</g>
<!-- q13 -->
<g id="node23" class="node">
<title>q13</title>
<ellipse fill="none" stroke="black" cx="681.78" cy="-250.52" rx="25.52" ry="25.52"/>
<text text-anchor="middle" x="681.78" y="-246.32" font-family="Times,serif" font-size="14.00">q13</text>
</g>
<!-- q8&#45;&gt;q13 -->
<g id="edge28" class="edge">
<title>q8-&gt;q13</title>
<path fill="none" stroke="black" d="M613.53,-251.26C623.04,-251.15 634.19,-251.03 644.64,-250.92"/>
<polygon fill="black" stroke="black" points="644.55,-254.42 654.51,-250.81 644.47,-247.42 644.55,-254.42"/>
<text text-anchor="middle" x="634.76" y="-255.25" font-family="Times,serif" font-size="14.00">b</text>
</g>
<!-- q16 -->
<g id="node8" class="node">
<title>q16</title>
<ellipse fill="none" stroke="black" cx="1579.46" cy="-640.52" rx="25.52" ry="25.52"/>
<ellipse fill="none" stroke="black" cx="1579.46" cy="-640.52" rx="29.52" ry="29.52"/>
<text text-anchor="middle" x="1579.46" y="-636.32" font-family="Times,serif" font-size="14.00">q16</text>
</g>
<!-- q17 -->
<g id="node9" class="node">
<title>q17</title>
<ellipse fill="none" stroke="black" cx="873.08" cy="-400.52" rx="25.52" ry="25.52"/>
<ellipse fill="none" stroke="black" cx="873.08" cy="-400.52" rx="29.52" ry="29.52"/>
<text text-anchor="middle" x="873.08" y="-396.32" font-family="Times,serif" font-size="14.00">q17</text>
</g>
<!-- q17&#45;&gt;&amp;1 -->
<g id="edge42" class="edge">
<title>q17-&gt;&amp;1</title>
<path fill="none" stroke="black" d="M902.16,-393.29C955.53,-379.55 1071.39,-349.71 1128.4,-335.03"/>
<polygon fill="black" stroke="black" points="1129.03,-338.48 1137.84,-332.6 1127.28,-331.7 1129.03,-338.48"/>
<text text-anchor="middle" x="1017.76" y="-367.72" font-family="Times,serif" font-size="14.00">c</text>
</g>
<!-- q21 -->
<g id="node28" class="node">
<title>q21</title>
<ellipse fill="none" stroke="black" cx="971.13" cy="-421.52" rx="25.52" ry="25.52"/>
<text text-anchor="middle" x="971.13" y="-417.32" font-family="Times,serif" font-size="14.00">q21</text>
</g>
<!-- q17&#45;&gt;q21 -->
<g id="edge41" class="edge">
<title>q17-&gt;q21</title>
<path fill="none" stroke="black" d="M902.38,-406.71C912.54,-408.93 924.12,-411.46 934.8,-413.8"/>
<polygon fill="black" stroke="black" points="933.93,-417.19 944.45,-415.91 935.43,-410.35 933.93,-417.19"/>
<text text-anchor="middle" x="924.1" y="-415.85" font-family="Times,serif" font-size="14.00">b</text>
</g>
<!-- q19 -->
<g id="node10" class="node">
<title>q19</title>
<ellipse fill="none" stroke="black" cx="1162.43" cy="-566.52" rx="25.52" ry="25.52"/>
<ellipse fill="none" stroke="black" cx="1162.43" cy="-566.52" rx="29.52" ry="29.52"/>
<text text-anchor="middle" x="1162.43" y="-562.32" font-family="Times,serif" font-size="14.00">q19</text>
</g>
<!-- q19&#45;&gt;q21 -->
<g id="edge45" class="edge">
<title>q19-&gt;q21</title>
<path fill="none" stroke="black" d="M1134.78,-577.37C1107.92,-586.37 1066.6,-594.76 1038.86,-574.52 1001.26,-547.09 984.57,-493.85 977.36,-457.99"/>
<polygon fill="black" stroke="black" points="980.86,-457.7 975.61,-448.5 973.98,-458.97 980.86,-457.7"/>
<text text-anchor="middle" x="1064.38" y="-591.2" font-family="Times,serif" font-size="14.00">b</text>
</g>
<!-- q24 -->
<g id="node11" class="node">
<title>q24</title>
<ellipse fill="none" stroke="black" cx="119.27" cy="-29.52" rx="25.52" ry="25.52"/>
<ellipse fill="none" stroke="black" cx="119.27" cy="-29.52" rx="29.52" ry="29.52"/>
<text text-anchor="middle" x="119.27" y="-25.32" font-family="Times,serif" font-size="14.00">q24</text>
</g>
<!-- q24&#45;&gt;q24 -->
<g id="edge3" class="edge">
<title>q24-&gt;q24</title>
<path fill="none" stroke="black" d="M114.49,-58.76C114.44,-68.87 116.04,-77.04 119.27,-77.04 121.15,-77.04 122.47,-74.31 123.24,-70.05"/>
<polygon fill="black" stroke="black" points="126.72,-70.49 123.95,-60.27 119.74,-69.99 126.72,-70.49"/>
<text text-anchor="middle" x="119.27" y="-81.24" font-family="Times,serif" font-size="14.00">a</text>
</g>
<!-- q24&#45;&gt;q24 -->
<g id="edge4" class="edge">
<title>q24-&gt;q24</title>
<path fill="none" stroke="black" d="M110.51,-58.15C108.13,-76.9 111.05,-95.04 119.27,-95.04 125.83,-95.04 129.01,-83.52 128.83,-69.35"/>
<polygon fill="black" stroke="black" points="132.35,-69.39 128.15,-59.66 125.36,-69.88 132.35,-69.39"/>
<text text-anchor="middle" x="119.27" y="-99.24" font-family="Times,serif" font-size="14.00">b</text>
</g>
<!-- q25 -->
<g id="node14" class="node">
<title>q25</title>
<ellipse fill="none" stroke="black" cx="217.32" cy="-29.52" rx="25.52" ry="25.52"/>
<text text-anchor="middle" x="217.32" y="-25.32" font-family="Times,serif" font-size="14.00">q25</text>
</g>
<!-- q24&#45;&gt;q25 -->
<g id="edge5" class="edge">
<title>q24-&gt;q25</title>
<path fill="none" stroke="black" d="M149.09,-29.52C158.78,-29.52 169.72,-29.52 179.92,-29.52"/>
<polygon fill="black" stroke="black" points="179.91,-33.02 189.91,-29.52 179.91,-26.02 179.91,-33.02"/>
<text text-anchor="middle" x="170.3" y="-33.72" font-family="Times,serif" font-size="14.00">c</text>
</g>
<!-- q30 -->
<g id="node12" class="node">
<title>q30</title>
<ellipse fill="none" stroke="black" cx="1384.94" cy="-262.52" rx="25.52" ry="25.52"/>
<ellipse fill="none" stroke="black" cx="1384.94" cy="-262.52" rx="29.52" ry="29.52"/>
<text text-anchor="middle" x="1384.94" y="-258.32" font-family="Times,serif" font-size="14.00">q30</text>
</g>
<!-- q29 -->
<g id="node18" class="node">
<title>q29</title>
<ellipse fill="none" stroke="black" cx="1260.47" cy="-248.52" rx="25.52" ry="25.52"/>
<text text-anchor="middle" x="1260.47" y="-244.32" font-family="Times,serif" font-size="14.00">q29</text>
</g>
<!-- q30&#45;&gt;q29 -->
<g id="edge12" class="edge">
<title>q30-&gt;q29</title>
<path fill="none" stroke="black" d="M1355.33,-259.25C1338.07,-257.28 1315.92,-254.75 1297.47,-252.64"/>
<polygon fill="black" stroke="black" points="1298.09,-249.19 1287.76,-251.53 1297.3,-256.14 1298.09,-249.19"/>
<text text-anchor="middle" x="1320.71" y="-261.39" font-family="Times,serif" font-size="14.00">a, b, c</text>
</g>
<!-- &amp;0 -->
<g id="node13" class="node">
<title>&amp;0</title>
<ellipse fill="none" stroke="black" cx="23.38" cy="-100.52" rx="23.38" ry="23.38"/>
<text text-anchor="middle" x="23.38" y="-96.32" font-family="Times,serif" font-size="14.00">&amp;0</text>
</g>
<!-- &amp;0&#45;&gt;q1 -->
<g id="edge1" class="edge">
<title>&amp;0-&gt;q1</title>
<path fill="none" stroke="black" d="M42.48,-114.21C55.9,-124.36 74.44,-138.38 89.83,-150.02"/>
<polygon fill="black" stroke="black" points="87.64,-152.74 97.73,-155.98 91.86,-147.16 87.64,-152.74"/>
<text text-anchor="middle" x="68.25" y="-140.22" font-family="Times,serif" font-size="14.00">ε</text>
</g>
<!-- &amp;0&#45;&gt;q24 -->
<g id="edge2" class="edge">
<title>&amp;0-&gt;q24</title>
<path fill="none" stroke="black" d="M42.48,-86.83C54.93,-77.42 71.79,-64.67 86.45,-53.59"/>
<polygon fill="black" stroke="black" points="88.16,-56.68 94.02,-47.86 83.93,-51.1 88.16,-56.68"/>
<text text-anchor="middle" x="68.25" y="-73.47" font-family="Times,serif" font-size="14.00">ε</text>
</g>
<!-- q25&#45;&gt;q24 -->
<g id="edge6" class="edge">
<title>q25-&gt;q24</title>
<path fill="none" stroke="black" d="M194.96,-16.73C188.4,-13.46 181,-10.39 173.8,-8.72 167.67,-7.3 161.3,-7.85 155.2,-9.48"/>
<polygon fill="black" stroke="black" points="154.18,-6.12 146.01,-12.86 156.6,-12.69 154.18,-6.12"/>
<text text-anchor="middle" x="170.3" y="-12.92" font-family="Times,serif" font-size="14.00">a</text>
</g>
<!-- q25&#45;&gt;q24 -->
<g id="edge7" class="edge">
<title>q25-&gt;q24</title>
<path fill="none" stroke="black" d="M194.35,-40.79C187.9,-43.55 180.71,-46.12 173.8,-47.52 168.06,-48.69 162.09,-48.33 156.3,-47.09"/>
<polygon fill="black" stroke="black" points="157.55,-43.81 146.96,-44.25 155.51,-50.51 157.55,-43.81"/>
<text text-anchor="middle" x="170.3" y="-52.41" font-family="Times,serif" font-size="14.00">b</text>
</g>
<!-- q26 -->
<g id="node15" class="node">
<title>q26</title>
<ellipse fill="none" stroke="black" cx="311.36" cy="-29.52" rx="25.52" ry="25.52"/>
<text text-anchor="middle" x="311.36" y="-25.32" font-family="Times,serif" font-size="14.00">q26</text>
</g>
<!-- q25&#45;&gt;q26 -->
<g id="edge8" class="edge">
<title>q25-&gt;q26</title>
<path fill="none" stroke="black" d="M242.98,-29.52C252.58,-29.52 263.77,-29.52 274.24,-29.52"/>
<polygon fill="black" stroke="black" points="274.11,-33.02 284.11,-29.52 274.11,-26.02 274.11,-33.02"/>
<text text-anchor="middle" x="264.34" y="-33.72" font-family="Times,serif" font-size="14.00">c</text>
</g>
<!-- q9 -->
<g id="node17" class="node">
<title>q9</title>
<ellipse fill="none" stroke="black" cx="1260.47" cy="-365.52" rx="20.69" ry="20.69"/>
<text text-anchor="middle" x="1260.47" y="-361.32" font-family="Times,serif" font-size="14.00">q9</text>
</g>
<!-- &amp;1&#45;&gt;q9 -->
<g id="edge9" class="edge">
<title>&amp;1-&gt;q9</title>
<path fill="none" stroke="black" d="M1185.27,-333.25C1195.07,-336.45 1206.7,-340.49 1216.95,-344.72 1221.69,-346.68 1226.65,-348.92 1231.44,-351.19"/>
<polygon fill="black" stroke="black" points="1229.61,-354.19 1240.13,-355.43 1232.69,-347.9 1229.61,-354.19"/>
<text text-anchor="middle" x="1213.45" y="-348.92" font-family="Times,serif" font-size="14.00">ε</text>
</g>
<!-- &amp;1&#45;&gt;q29 -->
<g id="edge10" class="edge">
<title>&amp;1-&gt;q29</title>
<path fill="none" stroke="black" d="M1178.52,-309.55C1187.24,-300.22 1198.68,-288.75 1209.95,-279.72 1215.68,-275.14 1222.11,-270.66 1228.4,-266.59"/>
<polygon fill="black" stroke="black" points="1230.12,-269.64 1236.75,-261.37 1226.41,-263.7 1230.12,-269.64"/>
<text text-anchor="middle" x="1213.45" y="-283.92" font-family="Times,serif" font-size="14.00">ε</text>
</g>
<!-- q14 -->
<g id="node24" class="node">
<title>q14</title>
<ellipse fill="none" stroke="black" cx="1384.94" cy="-340.52" rx="25.52" ry="25.52"/>
<text text-anchor="middle" x="1384.94" y="-336.32" font-family="Times,serif" font-size="14.00">q14</text>
</g>
<!-- q9&#45;&gt;q14 -->
<g id="edge29" class="edge">
<title>q9-&gt;q14</title>
<path fill="none" stroke="black" d="M1279.8,-357.61C1287.19,-354.71 1295.88,-351.67 1303.99,-349.72 1318.22,-346.31 1334.18,-344.15 1348.08,-342.79"/>
<polygon fill="black" stroke="black" points="1348.02,-346.31 1357.67,-341.96 1347.41,-339.34 1348.02,-346.31"/>
<text text-anchor="middle" x="1320.71" y="-353.92" font-family="Times,serif" font-size="14.00">a</text>
</g>
<!-- q15 -->
<g id="node25" class="node">
<title>q15</title>
<ellipse fill="none" stroke="black" cx="1384.94" cy="-523.52" rx="25.52" ry="25.52"/>
<text text-anchor="middle" x="1384.94" y="-519.32" font-family="Times,serif" font-size="14.00">q15</text>
</g>
<!-- q9&#45;&gt;q15 -->
<g id="edge30" class="edge">
<title>q9-&gt;q15</title>
<path fill="none" stroke="black" d="M1281.44,-367.58C1298.42,-370.35 1322.38,-376.78 1337.42,-391.72 1363.04,-417.15 1374.59,-457.53 1379.78,-486.9"/>
<polygon fill="black" stroke="black" points="1376.27,-487.13 1381.29,-496.46 1383.18,-486.03 1376.27,-487.13"/>
<text text-anchor="middle" x="1320.71" y="-395.92" font-family="Times,serif" font-size="14.00">b</text>
</g>
<!-- q29&#45;&gt;q30 -->
<g id="edge11" class="edge">
<title>q29-&gt;q30</title>
<path fill="none" stroke="black" d="M1284.65,-238.96C1299.81,-234.01 1319.98,-229.91 1337.42,-234.72 1342.01,-235.99 1346.61,-237.84 1351.03,-240"/>
<polygon fill="black" stroke="black" points="1349.15,-242.96 1359.6,-244.73 1352.53,-236.83 1349.15,-242.96"/>
<text text-anchor="middle" x="1320.71" y="-238.92" font-family="Times,serif" font-size="14.00">a, b, c</text>
</g>
<!-- q12 -->
<g id="node22" class="node">
<title>q12</title>
<ellipse fill="none" stroke="black" cx="1064.38" cy="-421.52" rx="25.52" ry="25.52"/>
<text text-anchor="middle" x="1064.38" y="-417.32" font-family="Times,serif" font-size="14.00">q12</text>
</g>
<!-- q7&#45;&gt;q12 -->
<g id="edge26" class="edge">
<title>q7-&gt;q12</title>
<path fill="none" stroke="black" d="M1244.15,-464.47C1231.11,-454.03 1211.43,-439.85 1191.95,-431.72 1187.73,-429.96 1142.34,-414.5 1107.91,-416.52 1105.74,-416.65 1103.51,-416.81 1101.26,-417"/>
<polygon fill="black" stroke="black" points="1101.18,-413.49 1091.58,-417.97 1101.88,-420.46 1101.18,-413.49"/>
<text text-anchor="middle" x="1162.43" y="-435.92" font-family="Times,serif" font-size="14.00">a</text>
</g>
<!-- q10&#45;&gt;q16 -->
<g id="edge31" class="edge">
<title>q10-&gt;q16</title>
<path fill="none" stroke="black" d="M1507.73,-640.52C1517.02,-640.52 1527.86,-640.52 1538.23,-640.52"/>
<polygon fill="black" stroke="black" points="1538.1,-644.02 1548.1,-640.52 1538.1,-637.02 1538.1,-644.02"/>
<text text-anchor="middle" x="1528.83" y="-644.72" font-family="Times,serif" font-size="14.00">a</text>
</g>
<!-- q11&#45;&gt;q17 -->
<g id="edge32" class="edge">
<title>q11-&gt;q17</title>
<path fill="none" stroke="black" d="M801.02,-400.52C810.39,-400.52 821.29,-400.52 831.7,-400.52"/>
<polygon fill="black" stroke="black" points="831.63,-404.02 841.63,-400.52 831.63,-397.02 831.63,-404.02"/>
<text text-anchor="middle" x="822.06" y="-404.72" font-family="Times,serif" font-size="14.00">a</text>
</g>
<!-- q18 -->
<g id="node26" class="node">
<title>q18</title>
<ellipse fill="none" stroke="black" cx="873.08" cy="-623.52" rx="25.52" ry="25.52"/>
<text text-anchor="middle" x="873.08" y="-619.32" font-family="Times,serif" font-size="14.00">q18</text>
</g>
<!-- q11&#45;&gt;q18 -->
<g id="edge33" class="edge">
<title>q11-&gt;q18</title>
<path fill="none" stroke="black" d="M786.14,-423.97C803.21,-463.62 837.86,-544.05 857.55,-589.77"/>
<polygon fill="black" stroke="black" points="854.21,-590.87 861.38,-598.67 860.64,-588.1 854.21,-590.87"/>
<text text-anchor="middle" x="822.06" y="-516.22" font-family="Times,serif" font-size="14.00">b</text>
</g>
<!-- q12&#45;&gt;q19 -->
<g id="edge34" class="edge">
<title>q12-&gt;q19</title>
<path fill="none" stroke="black" d="M1079.35,-442.61C1094.99,-466.21 1120.55,-504.81 1139,-532.66"/>
<polygon fill="black" stroke="black" points="1135.92,-534.35 1144.36,-540.76 1141.76,-530.49 1135.92,-534.35"/>
<text text-anchor="middle" x="1111.41" y="-498.22" font-family="Times,serif" font-size="14.00">a</text>
</g>
<!-- q20 -->
<g id="node27" class="node">
<title>q20</title>
<ellipse fill="none" stroke="black" cx="1162.43" cy="-483.52" rx="25.52" ry="25.52"/>
<text text-anchor="middle" x="1162.43" y="-479.32" font-family="Times,serif" font-size="14.00">q20</text>
</g>
<!-- q12&#45;&gt;q20 -->
<g id="edge35" class="edge">
<title>q12-&gt;q20</title>
<path fill="none" stroke="black" d="M1090.11,-417.96C1098.38,-417.83 1107.4,-418.9 1114.91,-422.72 1116.81,-423.69 1128.5,-438.97 1139.68,-453.97"/>
<polygon fill="black" stroke="black" points="1136.82,-455.98 1145.59,-461.93 1142.44,-451.81 1136.82,-455.98"/>
<text text-anchor="middle" x="1111.41" y="-426.92" font-family="Times,serif" font-size="14.00">b</text>
</g>
<!-- q13&#45;&gt;q10 -->
<g id="edge36" class="edge">
<title>q13-&gt;q10</title>
<path fill="none" stroke="black" d="M700.72,-233.26C718.03,-218.46 745.73,-199.52 774.04,-199.52 774.04,-199.52 774.04,-199.52 1018.76,-199.52 1104.87,-199.52 1126.33,-194.52 1212.45,-194.52 1212.45,-194.52 1212.45,-194.52 1385.94,-194.52 1469.32,-194.52 1479.98,-496.37 1481.14,-603.42"/>
<polygon fill="black" stroke="black" points="1477.64,-603.13 1481.22,-613.1 1484.64,-603.07 1477.64,-603.13"/>
<text text-anchor="middle" x="1064.38" y="-203.61" font-family="Times,serif" font-size="14.00">a</text>
</g>
<!-- q13&#45;&gt;q11 -->
<g id="edge37" class="edge">
<title>q13-&gt;q11</title>
<path fill="none" stroke="black" d="M695.86,-272.01C711.37,-297.52 737.38,-340.26 755.1,-369.39"/>
<polygon fill="black" stroke="black" points="752.01,-371.05 760.2,-377.78 757.99,-367.42 752.01,-371.05"/>
<text text-anchor="middle" x="728.41" y="-334.22" font-family="Times,serif" font-size="14.00">c</text>
</g>
<!-- q14&#45;&gt;&amp;1 -->
<g id="edge38" class="edge">
<title>q14-&gt;&amp;1</title>
<path fill="none" stroke="black" d="M1360.04,-333.66C1340.36,-328.39 1311.62,-321.54 1285.99,-318.72 1263.44,-316.24 1257.6,-317.49 1234.95,-318.72 1222.6,-319.39 1209.11,-320.71 1197.2,-322.08"/>
<polygon fill="black" stroke="black" points="1196.94,-318.58 1187.43,-323.25 1197.77,-325.53 1196.94,-318.58"/>
<text text-anchor="middle" x="1260.47" y="-322.92" font-family="Times,serif" font-size="14.00">c</text>
</g>
<!-- q15&#45;&gt;&amp;1 -->
<g id="edge40" class="edge">
<title>q15-&gt;&amp;1</title>
<path fill="none" stroke="black" d="M1366.65,-505.55C1347.64,-486.19 1315.84,-454.91 1285.99,-430.72 1264.58,-413.37 1256.28,-412.97 1234.95,-395.52 1218.14,-381.77 1200.57,-364.86 1187.05,-351.22"/>
<polygon fill="black" stroke="black" points="1189.76,-348.99 1180.26,-344.29 1184.76,-353.88 1189.76,-348.99"/>
<text text-anchor="middle" x="1260.47" y="-434.92" font-family="Times,serif" font-size="14.00">c</text>
</g>
<!-- q15&#45;&gt;q10 -->
<g id="edge39" class="edge">
<title>q15-&gt;q10</title>
<path fill="none" stroke="black" d="M1401.89,-543.11C1417.27,-562 1440.73,-590.82 1458.15,-612.21"/>
<polygon fill="black" stroke="black" points="1455.22,-614.16 1464.25,-619.7 1460.65,-609.74 1455.22,-614.16"/>
<text text-anchor="middle" x="1435.57" y="-589.73" font-family="Times,serif" font-size="14.00">a</text>
</g>
<!-- q18&#45;&gt;q10 -->
<g id="edge43" class="edge">
<title>q18-&gt;q10</title>
<path fill="none" stroke="black" d="M890.42,-642.46C908.05,-660.69 937.97,-685.52 970.13,-685.52 970.13,-685.52 970.13,-685.52 1385.94,-685.52 1409.86,-685.52 1434.2,-673.78 1452.29,-662.29"/>
<polygon fill="black" stroke="black" points="1454.04,-665.33 1460.4,-656.85 1450.15,-659.51 1454.04,-665.33"/>
<text text-anchor="middle" x="1162.43" y="-689.72" font-family="Times,serif" font-size="14.00">a</text>
</g>
<!-- q22 -->
<g id="node29" class="node">
<title>q22</title>
<ellipse fill="none" stroke="black" cx="971.13" cy="-623.52" rx="25.52" ry="25.52"/>
<text text-anchor="middle" x="971.13" y="-619.32" font-family="Times,serif" font-size="14.00">q22</text>
</g>
<!-- q18&#45;&gt;q22 -->
<g id="edge44" class="edge">
<title>q18-&gt;q22</title>
<path fill="none" stroke="black" d="M899.07,-623.52C909.74,-623.52 922.4,-623.52 934.06,-623.52"/>
<polygon fill="black" stroke="black" points="933.75,-627.02 943.75,-623.52 933.75,-620.02 933.75,-627.02"/>
<text text-anchor="middle" x="924.1" y="-627.72" font-family="Times,serif" font-size="14.00">c</text>
</g>
<!-- q20&#45;&gt;q7 -->
<g id="edge46" class="edge">
<title>q20-&gt;q7</title>
<path fill="none" stroke="black" d="M1188.16,-481.98C1200.33,-481.22 1215.14,-480.29 1228.09,-479.48"/>
<polygon fill="black" stroke="black" points="1228.07,-482.99 1237.84,-478.87 1227.64,-476 1228.07,-482.99"/>
<text text-anchor="middle" x="1213.45" y="-484.72" font-family="Times,serif" font-size="14.00">c</text>
</g>
<!-- q21&#45;&gt;q12 -->
<g id="edge47" class="edge">
<title>q21-&gt;q12</title>
<path fill="none" stroke="black" d="M997.06,-421.52C1006.32,-421.52 1017.01,-421.52 1027.08,-421.52"/>
<polygon fill="black" stroke="black" points="1026.96,-425.02 1036.96,-421.52 1026.96,-418.02 1026.96,-425.02"/>
<text text-anchor="middle" x="1017.76" y="-425.72" font-family="Times,serif" font-size="14.00">c</text>
</g>
<!-- q22&#45;&gt;q15 -->
<g id="edge49" class="edge">
<title>q22-&gt;q15</title>
<path fill="none" stroke="black" d="M996.94,-624.06C1038.1,-624.38 1122.81,-622.64 1191.95,-605.52 1250.96,-590.91 1315.06,-560.25 1352.25,-540.84"/>
<polygon fill="black" stroke="black" points="1353.46,-544.16 1360.67,-536.39 1350.19,-537.97 1353.46,-544.16"/>
<text text-anchor="middle" x="1162.43" y="-620.4" font-family="Times,serif" font-size="14.00">b</text>
</g>
<!-- q23 -->
<g id="node30" class="node">
<title>q23</title>
<ellipse fill="none" stroke="black" cx="1064.38" cy="-539.52" rx="25.52" ry="25.52"/>
<text text-anchor="middle" x="1064.38" y="-535.32" font-family="Times,serif" font-size="14.00">q23</text>
</g>
<!-- q22&#45;&gt;q23 -->
<g id="edge48" class="edge">
<title>q22-&gt;q23</title>
<path fill="none" stroke="black" d="M990.59,-606.52C1003.83,-594.34 1021.86,-577.75 1036.66,-564.12"/>
<polygon fill="black" stroke="black" points="1038.84,-566.87 1043.83,-557.52 1034.1,-561.72 1038.84,-566.87"/>
<text text-anchor="middle" x="1017.76" y="-588.24" font-family="Times,serif" font-size="14.00">a</text>
</g>
<!-- q23&#45;&gt;q19 -->
<g id="edge50" class="edge">
<title>q23-&gt;q19</title>
<path fill="none" stroke="black" d="M1087.39,-551.45C1093.84,-554.51 1101.02,-557.5 1107.91,-559.52 1112.23,-560.79 1116.83,-561.83 1121.43,-562.68"/>
<polygon fill="black" stroke="black" points="1120.84,-566.13 1131.26,-564.2 1121.91,-559.21 1120.84,-566.13"/>
<text text-anchor="middle" x="1111.41" y="-565.22" font-family="Times,serif" font-size="14.00">a</text>
</g>
<!-- q23&#45;&gt;&amp;1 -->
<g id="edge52" class="edge">
<title>q23-&gt;&amp;1</title>
<path fill="none" stroke="black" d="M1077.05,-517.1C1087.38,-496.97 1102.68,-466.52 1114.91,-439.52 1127.09,-412.62 1139.78,-381.55 1148.82,-358.82"/>
<polygon fill="black" stroke="black" points="1151.97,-360.37 1152.39,-349.78 1145.46,-357.8 1151.97,-360.37"/>
<text text-anchor="middle" x="1111.41" y="-457.5" font-family="Times,serif" font-size="14.00">c</text>
</g>
<!-- q23&#45;&gt;q20 -->
<g id="edge51" class="edge">
<title>q23-&gt;q20</title>
<path fill="none" stroke="black" d="M1088.93,-531.53C1097.36,-528.28 1106.78,-524.18 1114.91,-519.52 1121.3,-515.85 1127.79,-511.39 1133.81,-506.87"/>
<polygon fill="black" stroke="black" points="1135.89,-509.69 1141.61,-500.77 1131.57,-504.17 1135.89,-509.69"/>
<text text-anchor="middle" x="1111.41" y="-527.15" font-family="Times,serif" font-size="14.00">b</text>
</g>
</g>
</svg>